<svg width="70" height="70" viewBox="0 0 70 70" fill="none" xmlns="http://www.w3.org/2000/svg">
<path d="M62.2222 25.2778H46.6667C45.6353 25.2778 44.6461 25.6876 43.9168 26.4169C43.1875 27.1462 42.7778 28.1353 42.7778 29.1667V58.3334C42.7778 59.3648 43.1875 60.354 43.9168 61.0833C44.6461 61.8126 45.6353 62.2223 46.6667 62.2223H62.2222C63.2536 62.2223 64.2428 61.8126 64.9721 61.0833C65.7014 60.354 66.1111 59.3648 66.1111 58.3334V29.1667C66.1111 28.1353 65.7014 27.1462 64.9721 26.4169C64.2428 25.6876 63.2536 25.2778 62.2222 25.2778ZM62.2222 29.1667V54.4445H46.6667V29.1667H62.2222Z" fill="#5979C7"/>
<path d="M54.4444 7.77783H7.77777C6.74638 7.77783 5.75722 8.18755 5.02791 8.91686C4.29861 9.64617 3.88889 10.6353 3.88889 11.6667V42.7778C3.88889 43.8092 4.29861 44.7984 5.02791 45.5277C5.75722 46.257 6.74638 46.6667 7.77777 46.6667H23.3333V50.5556H18.1222C17.5265 50.4879 16.9276 50.6521 16.4497 51.0141C15.9718 51.3762 15.6516 51.9083 15.5556 52.5C15.6516 53.0918 15.9718 53.6239 16.4497 53.986C16.9276 54.348 17.5265 54.5122 18.1222 54.4445H38.7333V53.725H38.8889V42.7778H7.77777V11.6667H54.4444V21.3889H58.3333V11.6667C58.3333 10.6353 57.9236 9.64617 57.1943 8.91686C56.465 8.18755 55.4758 7.77783 54.4444 7.77783Z" fill="#5979C7"/>
</svg>
