<svg width="40" height="40" viewBox="0 0 40 40" fill="none" xmlns="http://www.w3.org/2000/svg">
<path d="M35.9222 6.66673C35.7708 6.65113 35.6181 6.65113 35.4667 6.66673H4.35555C4.15616 6.66981 3.95808 6.6997 3.76666 6.75562L19.8222 22.7445L35.9222 6.66673Z" fill="#5979C7"/>
<path d="M37.5667 8.21118L21.3889 24.3223C20.9726 24.7362 20.4093 24.9685 19.8222 24.9685C19.2352 24.9685 18.6719 24.7362 18.2556 24.3223L2.22225 8.3334C2.17296 8.51456 2.14682 8.70123 2.14447 8.88896V31.1112C2.14447 31.7005 2.3786 32.2658 2.79534 32.6825C3.21209 33.0993 3.77732 33.3334 4.36669 33.3334H35.4778C36.0672 33.3334 36.6324 33.0993 37.0492 32.6825C37.4659 32.2658 37.7 31.7005 37.7 31.1112V8.88896C37.6912 8.65746 37.6462 8.42878 37.5667 8.21118ZM5.88892 31.1112H4.34447V29.5223L12.4222 21.5112L13.9889 23.0778L5.88892 31.1112ZM35.4556 31.1112H33.9L25.8 23.0778L27.3667 21.5112L35.4445 29.5223L35.4556 31.1112Z" fill="#5979C7"/>
</svg>
