<svg width="66" height="83" viewBox="0 0 66 83" fill="none" xmlns="http://www.w3.org/2000/svg">
<path d="M51.4458 39.4558C51.4458 35.0839 50.2038 32.0575 49.1409 29.7014L48.8151 29.0312C47.5242 26.4018 46.3961 24.0921 46.3961 21.4009C46.3961 18.1528 48.3427 15.1213 51.0875 15.1213C51.1689 15.1213 51.2463 15.1316 51.3236 15.1368L51.4499 15.1523C46.3032 9.16731 39.5671 5.85109 32.5787 5.86184C27.9471 5.85883 23.3877 7.31481 19.3114 10.0986C15.235 12.8823 11.7698 16.9064 9.22799 21.8082C9.87956 21.8339 10.5026 21.8546 11.028 21.8546C13.9478 21.8546 18.4722 21.406 18.4722 21.406C19.9789 21.2926 20.1581 24.0921 18.6514 24.319C18.6514 24.319 17.1405 24.5458 15.4546 24.6541L25.6354 62.9809L31.7439 39.7497L27.3865 24.6489C25.8838 24.5355 24.4585 24.3138 24.4585 24.3138C22.9517 24.2004 23.1309 21.2823 24.6336 21.3957C24.6336 21.3957 29.2516 21.8443 31.9964 21.8443C34.9203 21.8443 39.4487 21.3957 39.4487 21.3957C40.9555 21.2823 41.1306 24.087 39.6238 24.3138C39.6238 24.3138 38.1089 24.5355 36.4271 24.6489L46.5264 62.6819L49.3119 50.891L49.5318 49.9991C50.6314 45.5653 51.4417 42.2914 51.4417 39.4507L51.4458 39.4558ZM4.63033 41.2448C4.63006 47.8891 6.10728 54.3993 8.89296 60.0303C11.6786 65.6614 15.6602 70.1858 20.3821 73.0859L7.04522 26.8401C5.44818 31.3729 4.62526 36.2816 4.63033 41.2448V41.2448Z" fill="#5979C7"/>
<path d="M24.6825 75.1845L33.0715 44.338L41.66 74.1379C41.717 74.308 41.7822 74.4678 41.8596 74.6225C36.323 77.0919 30.3124 77.2886 24.6825 75.1845V75.1845ZM57.0982 24.2668C57.2204 25.3959 57.2896 26.6024 57.2896 27.9068C57.2896 31.4951 56.7602 35.532 55.1639 40.5795L46.6283 71.823C52.927 67.1898 57.5471 59.6251 59.5037 50.7414C61.4603 41.8577 60.5986 32.3578 57.1023 24.2668H57.0982Z" fill="#5979C7"/>
<path fill-rule="evenodd" clip-rule="evenodd" d="M0 41.2449C0 18.5035 14.6156 0 32.5787 0C50.5377 0 65.1573 18.5035 65.1573 41.2449C65.1573 63.9863 50.5377 82.4897 32.5787 82.4897C14.6156 82.4897 0 63.9863 0 41.2449ZM1.49455 41.2449C1.49455 62.9448 15.4382 80.5976 32.5787 80.5976C49.7151 80.5976 63.6587 62.9448 63.6587 41.2449C63.6587 19.5398 49.7151 1.89211 32.5787 1.89211C15.4341 1.89211 1.49455 19.5398 1.49455 41.2449Z" fill="#5979C7"/>
</svg>
