<svg width="53" height="87" viewBox="0 0 53 87" fill="none" xmlns="http://www.w3.org/2000/svg">
<path d="M6.06667 0H9.2225V3.86053H12.11V0H15.2658V11.6863H12.11V7.77524H9.2225V11.6863H6.06958V0H6.06667ZM19.4133 3.87498H16.6367V0H25.3487V3.87498H22.5692V11.6863H19.4133V3.87498ZM26.7312 0H30.0212L32.0454 4.10611L34.0667 0H37.3567V11.6863H34.2154V5.89372L32.0454 10.0504H31.99L29.8171 5.89734V11.6863H26.7312V0ZM38.9258 0H42.0846V7.8258H46.5179V11.6899H38.9258V0Z" fill="#5979C7"/>
<path fill-rule="evenodd" clip-rule="evenodd" d="M5.9675 79.7133L0 17.0354H52.5L46.5296 79.706L26.2208 86.6763L5.9675 79.7133ZM18.0337 45.4039L17.4679 37.5308H41.2242L41.7783 29.8454H10.6867L12.3608 53.0928H33.8771L33.1567 63.0606L26.2325 65.3792H26.2267L19.3142 63.0678L18.8708 56.939H12.635L13.5042 69.0087L26.2208 73.3787L38.9579 69.0087L40.5096 47.4696L40.6613 45.4075H18.0337V45.4039Z" fill="#5979C7"/>
</svg>
