<svg width="41" height="52" viewBox="0 0 41 52" fill="none" xmlns="http://www.w3.org/2000/svg">
<path d="M16.0575 23.519C16.4495 23.1595 16.6388 22.5662 16.6388 21.7503C16.6523 21.3623 16.5893 20.98 16.4541 20.632C16.3324 20.3524 16.1521 20.1185 15.9313 19.953C15.7023 19.7772 15.448 19.6609 15.1832 19.6107C14.8947 19.5422 14.6018 19.508 14.3134 19.5137H11.1451V24.061H14.5747C15.1651 24.0667 15.6654 23.8841 16.0575 23.519V23.519ZM16.5893 27.627C16.1476 27.1991 15.5572 26.9879 14.8226 26.9879H11.1361V32.3511H14.7505C15.0885 32.3511 15.3995 32.3112 15.7014 32.2313C15.9871 32.1606 16.2594 32.0212 16.5036 31.8205C16.7335 31.6323 16.9182 31.3755 17.058 31.0446C17.1932 30.7137 17.2608 30.2915 17.2608 29.7837C17.2608 28.7738 17.0354 28.0606 16.5893 27.627V27.627ZM20.1901 0.337402C9.04049 0.337402 0 11.7827 0 25.8982C0 40.0137 9.04049 51.459 20.1901 51.459C31.3398 51.459 40.3802 40.0137 40.3802 25.8982C40.3802 11.7827 31.3398 0.337402 20.1901 0.337402ZM24.0884 16.7066H30.3257V18.6293H24.0884V16.7066ZM20.1901 32.5623C19.8984 33.2633 19.4818 33.8689 18.9733 34.331C18.4415 34.7988 17.8511 35.1412 17.2247 35.3409C16.5693 35.5632 15.8932 35.6726 15.2147 35.6661H7.75157V16.2045H15.0074C15.742 16.2045 16.409 16.2901 17.0174 16.4498C17.6213 16.6096 18.1351 16.8834 18.5677 17.2543C18.9958 17.6252 19.3338 18.1216 19.5727 18.7377C19.8071 19.3482 19.9287 20.1128 19.9287 21.02C19.9287 22.0013 19.753 22.8115 19.4014 23.4676C19.0454 24.1238 18.5317 24.6544 17.8331 25.0709C18.784 25.4132 19.4826 26.0237 19.9423 26.8795C20.411 27.7468 20.6408 28.7852 20.6408 30.0062C20.6408 30.9989 20.4921 31.8491 20.1901 32.5623ZM32.7549 29.5497H24.7149C24.7149 30.6566 25.0168 31.7178 25.472 32.2884C25.9317 32.8532 26.5897 33.1385 27.4505 33.1385C28.0724 33.1385 28.5997 32.9388 29.0503 32.5451C29.4965 32.1515 29.7669 31.735 29.8661 31.3013H32.5611C32.1284 32.9959 31.4705 34.2055 30.5781 34.9358C29.6948 35.6661 28.6132 36.0312 27.3558 36.0312C26.477 36.0312 25.6883 35.8486 24.9808 35.5006C24.3003 35.164 23.6873 34.6505 23.1826 33.9886C22.6849 33.309 22.3002 32.5096 22.0514 31.638C21.7765 30.6737 21.6413 29.6581 21.6503 28.6368C21.6503 27.5813 21.79 26.6 22.0604 25.6871C22.5787 23.9127 23.6558 22.492 25.0303 21.756C25.7649 21.368 26.5536 21.174 27.3513 21.1854C28.2977 21.1854 29.1179 21.4136 29.83 21.8815C30.5155 22.3283 31.1107 22.9685 31.5696 23.7529C32.0248 24.5346 32.3448 25.4246 32.5476 26.4288C32.7414 27.4159 32.8089 28.4543 32.7549 29.5497V29.5497ZM27.2567 24.0952C26.7699 24.0952 26.3598 24.2036 26.0444 24.4148C25.7289 24.6259 25.4675 24.8883 25.2692 25.1907C25.0804 25.4827 24.9408 25.8205 24.8591 26.1835C24.787 26.4859 24.7374 26.794 24.7194 27.1078H29.6993C29.6272 26.1207 29.3568 25.3904 28.9963 24.8769C28.6177 24.3691 28.0093 24.0952 27.2567 24.0952V24.0952Z" fill="#5979C7"/>
</svg>
