<svg width="70" height="54" viewBox="0 0 70 54" fill="none" xmlns="http://www.w3.org/2000/svg">
<path d="M62.3438 1.18741C61.5916 0.700826 60.7315 0.406456 59.8389 0.33017C58.9464 0.253885 58.0488 0.39802 57.225 0.749906L30.2312 11.3812C29.5922 11.6412 28.9087 11.775 28.2188 11.7749H10.9375C9.4871 11.7749 8.0961 12.3511 7.07051 13.3767C6.04492 14.4023 5.46875 15.7933 5.46875 17.2437V17.6812H0V30.8062H5.46875V31.3749C5.50302 32.8024 6.09429 34.16 7.11618 35.1573C8.13808 36.1547 9.50955 36.7128 10.9375 36.7124L17.5 50.6249C17.9444 51.5618 18.644 52.3543 19.5185 52.9115C20.3929 53.4687 21.4069 53.768 22.4438 53.7749H25.2C26.6428 53.7634 28.0226 53.1821 29.0387 52.1578C30.0549 51.1334 30.625 49.749 30.625 48.3062V37.2374L57.225 47.8687C57.8793 48.129 58.5771 48.2626 59.2812 48.2624C60.3737 48.2448 61.4376 47.9104 62.3438 47.2999C63.0633 46.8141 63.6569 46.1638 64.0753 45.4031C64.4937 44.6423 64.725 43.7928 64.75 42.9249V5.69366C64.746 4.80341 64.5247 3.92761 64.1054 3.1423C63.686 2.357 63.0813 1.68594 62.3438 1.18741ZM25.1562 17.2437V31.3749H10.9375V17.2437H25.1562ZM25.1562 48.3062H22.4L17.0188 36.7124H25.1562V48.3062ZM32.2437 32.0312C31.7243 31.7657 31.1827 31.5461 30.625 31.3749V16.9374C31.1773 16.8234 31.7189 16.6624 32.2437 16.4562L59.2812 5.69366V42.7937L32.2437 32.0312ZM64.8812 18.7749V29.7124C66.3316 29.7124 67.7226 29.1362 68.7482 28.1106C69.7738 27.0851 70.35 25.6941 70.35 24.2437C70.35 22.7933 69.7738 21.4023 68.7482 20.3767C67.7226 19.3511 66.3316 18.7749 64.8812 18.7749Z" fill="#5979C7"/>
</svg>
