<svg width="42" height="42" viewBox="0 0 42 42" fill="none" xmlns="http://www.w3.org/2000/svg">
<path d="M30.0834 25.1666C30.25 23.7916 30.375 22.4166 30.375 21C30.375 19.5833 30.25 18.2083 30.0834 16.8333H37.125C37.4584 18.1666 37.6667 19.5625 37.6667 21C37.6667 22.4375 37.4584 23.8333 37.125 25.1666H30.0834ZM26.3959 36.75C27.6459 34.4375 28.6042 31.9375 29.2709 29.3333H35.4167C33.3983 32.8089 30.1961 35.4416 26.3959 36.75ZM25.875 25.1666H16.125C15.9167 23.7916 15.7917 22.4166 15.7917 21C15.7917 19.5833 15.9167 18.1875 16.125 16.8333H25.875C26.0625 18.1875 26.2084 19.5833 26.2084 21C26.2084 22.4166 26.0625 23.7916 25.875 25.1666ZM21 37.5833C19.2709 35.0833 17.875 32.3125 17.0209 29.3333H24.9792C24.125 32.3125 22.7292 35.0833 21 37.5833ZM12.6667 12.6666H6.58336C8.58097 9.18166 11.7808 6.54472 15.5834 5.24996C14.3334 7.56246 13.3959 10.0625 12.6667 12.6666ZM6.58336 29.3333H12.6667C13.3959 31.9375 14.3334 34.4375 15.5834 36.75C11.7888 35.4409 8.59345 32.8077 6.58336 29.3333ZM4.87502 25.1666C4.54169 23.8333 4.33336 22.4375 4.33336 21C4.33336 19.5625 4.54169 18.1666 4.87502 16.8333H11.9167C11.75 18.2083 11.625 19.5833 11.625 21C11.625 22.4166 11.75 23.7916 11.9167 25.1666H4.87502ZM21 4.39579C22.7292 6.8958 24.125 9.68746 24.9792 12.6666H17.0209C17.875 9.68746 19.2709 6.8958 21 4.39579ZM35.4167 12.6666H29.2709C28.6188 10.0863 27.6533 7.59558 26.3959 5.24996C30.2292 6.56246 33.4167 9.2083 35.4167 12.6666ZM21 0.166626C9.47919 0.166626 0.166687 9.54163 0.166687 21C0.166687 26.5253 2.36162 31.8244 6.26863 35.7314C8.20319 37.6659 10.4998 39.2005 13.0275 40.2475C15.5551 41.2944 18.2642 41.8333 21 41.8333C26.5254 41.8333 31.8244 39.6384 35.7314 35.7314C39.6384 31.8244 41.8334 26.5253 41.8334 21C41.8334 18.2641 41.2945 15.555 40.2475 13.0274C39.2006 10.4998 37.666 8.20312 35.7314 6.26857C33.7969 4.33402 31.5002 2.79944 28.9726 1.75247C26.445 0.705496 23.7359 0.166626 21 0.166626Z" fill="#F8F8F8"/>
</svg>
