<svg width="60" height="73" viewBox="0 0 60 73" fill="none" xmlns="http://www.w3.org/2000/svg">
<path d="M30 23.8725C23.9727 23.8725 19.0909 29.7254 19.0909 36.9516C19.0909 44.1778 23.9727 50.0307 30 50.0307C36.0273 50.0307 40.9091 44.1778 40.9091 36.9516C40.9091 29.7254 36.0273 23.8725 30 23.8725ZM54.3818 33.6818C53.7641 27.0511 51.284 20.8694 47.349 16.1516C43.414 11.4338 38.2579 8.4605 32.7273 7.71986V0.984131H27.2727V7.71986C21.7422 8.4605 16.586 11.4338 12.651 16.1516C8.71595 20.8694 6.23594 27.0511 5.61818 33.6818H0V40.2214H5.61818C6.23594 46.8521 8.71595 53.0338 12.651 57.7516C16.586 62.4694 21.7422 65.4427 27.2727 66.1833V72.9191H32.7273V66.1833C38.2579 65.4427 43.414 62.4694 47.349 57.7516C51.284 53.0338 53.7641 46.8521 54.3818 40.2214H60V33.6818H54.3818ZM30 59.84C19.4455 59.84 10.9091 49.6056 10.9091 36.9516C10.9091 24.2976 19.4455 14.0632 30 14.0632C40.5545 14.0632 49.0909 24.2976 49.0909 36.9516C49.0909 49.6056 40.5545 59.84 30 59.84Z" fill="#5979C7"/>
</svg>
