<svg width="32" height="42" viewBox="0 0 32 42" fill="none" xmlns="http://www.w3.org/2000/svg">
<path d="M15.7143 0C11.5481 0.00507611 7.55398 1.7166 4.60805 4.75913C1.66212 7.80165 0.00493167 11.9267 1.67184e-05 16.2295C-0.00497313 19.7458 1.10713 23.1666 3.16573 25.9672C3.16573 25.9672 3.5943 26.55 3.6643 26.6341L15.7143 41.3115L27.77 26.6268C27.8329 26.5486 28.2629 25.9672 28.2629 25.9672L28.2643 25.9628C30.3219 23.1634 31.4335 19.7442 31.4286 16.2295C31.4237 11.9267 29.7665 7.80165 26.8205 4.75913C23.8746 1.7166 19.8805 0.00507611 15.7143 0ZM15.7143 22.1312C14.5841 22.1312 13.4793 21.785 12.5396 21.1366C11.5999 20.4881 10.8675 19.5664 10.435 18.488C10.0025 17.4096 9.88932 16.223 10.1098 15.0782C10.3303 13.9334 10.8745 12.8818 11.6737 12.0564C12.4728 11.2311 13.491 10.669 14.5995 10.4413C15.708 10.2136 16.8569 10.3304 17.9011 10.7771C18.9452 11.2238 19.8377 11.9802 20.4655 12.9507C21.0934 13.9213 21.4286 15.0623 21.4286 16.2295C21.4267 17.7941 20.824 19.2941 19.7528 20.4005C18.6816 21.5068 17.2292 22.1292 15.7143 22.1312Z" fill="#5979C7"/>
</svg>
