<svg width="591" height="472" viewBox="0 0 591 472" fill="none" xmlns="http://www.w3.org/2000/svg">
<g clip-path="url(#clip0_10_310)">
<g clip-path="url(#clip1_10_310)">
<path d="M507.159 69.3931H33.778C33.2857 69.3824 32.8171 69.1769 32.4726 68.8205C32.1281 68.4641 31.9352 67.9852 31.9352 67.4865C31.9352 66.9877 32.1281 66.5088 32.4726 66.1524C32.8171 65.796 33.2857 65.5905 33.778 65.5799H507.159C507.651 65.5905 508.12 65.796 508.464 66.1524C508.808 66.5088 509.001 66.9877 509.001 67.4865C509.001 67.9852 508.808 68.4641 508.464 68.8205C508.12 69.1769 507.651 69.3824 507.159 69.3931Z" fill="#CACACA"/>
<path d="M66.0016 55.8451C72.0946 55.8451 77.0339 50.7311 77.0339 44.4226C77.0339 38.1141 72.0946 33 66.0016 33C59.9086 33 54.9693 38.1141 54.9693 44.4226C54.9693 50.7311 59.9086 55.8451 66.0016 55.8451Z" fill="#3F3D56"/>
<path d="M104.113 55.8451C110.206 55.8451 115.146 50.7311 115.146 44.4226C115.146 38.1141 110.206 33 104.113 33C98.0204 33 93.081 38.1141 93.081 44.4226C93.081 50.7311 98.0204 55.8451 104.113 55.8451Z" fill="#3F3D56"/>
<path d="M142.225 55.8451C148.318 55.8451 153.257 50.7311 153.257 44.4226C153.257 38.1141 148.318 33 142.225 33C136.132 33 131.193 38.1141 131.193 44.4226C131.193 50.7311 136.132 55.8451 142.225 55.8451Z" fill="#3F3D56"/>
<path d="M484.212 35.8312H457.139C456.603 35.842 456.092 36.0655 455.716 36.4537C455.34 36.8418 455.13 37.3637 455.13 37.9073C455.13 38.4509 455.34 38.9728 455.716 39.3609C456.092 39.7491 456.603 39.9726 457.139 39.9834H484.212C484.749 39.9726 485.26 39.7491 485.635 39.3609C486.011 38.9728 486.221 38.4509 486.221 37.9073C486.221 37.3637 486.011 36.8418 485.635 36.4537C485.26 36.0655 484.749 35.842 484.212 35.8312Z" fill="#3F3D56"/>
<path d="M484.212 43.6243H457.139C456.603 43.6352 456.092 43.8586 455.716 44.2468C455.34 44.635 455.13 45.1569 455.13 45.7005C455.13 46.244 455.34 46.7659 455.716 47.1541C456.092 47.5423 456.603 47.7658 457.139 47.7766H484.212C484.749 47.7658 485.26 47.5423 485.635 47.1541C486.011 46.7659 486.221 46.244 486.221 45.7005C486.221 45.1569 486.011 44.635 485.635 44.2468C485.26 43.8586 484.749 43.6352 484.212 43.6243Z" fill="#3F3D56"/>
<path d="M484.212 51.4072H457.139C456.603 51.418 456.092 51.6414 455.716 52.0296C455.34 52.4178 455.13 52.9397 455.13 53.4834C455.13 54.027 455.34 54.5489 455.716 54.9371C456.092 55.3253 456.603 55.5487 457.139 55.5595H484.212C484.749 55.5487 485.26 55.3253 485.636 54.9371C486.011 54.5489 486.222 54.027 486.222 53.4834C486.222 52.9397 486.011 52.4178 485.636 52.0296C485.26 51.6414 484.749 51.418 484.212 51.4072Z" fill="#3F3D56"/>
<path d="M327.536 143.69C335.069 143.69 341.175 137.506 341.175 129.876C341.175 122.247 335.069 116.062 327.536 116.062C320.003 116.062 313.896 122.247 313.896 129.876C313.896 137.506 320.003 143.69 327.536 143.69Z" fill="#E6E7E8"/>
<path d="M442.494 160.465H317.958C317.424 160.466 316.896 160.36 316.402 160.154C315.908 159.948 315.46 159.645 315.082 159.263C314.704 158.881 314.405 158.427 314.2 157.927C313.996 157.428 313.89 156.892 313.89 156.352C313.89 155.811 313.996 155.276 314.2 154.776C314.405 154.277 314.704 153.823 315.082 153.441C315.46 153.059 315.908 152.756 316.402 152.549C316.896 152.343 317.424 152.237 317.958 152.238H442.494C443.028 152.237 443.557 152.343 444.05 152.549C444.544 152.756 444.992 153.059 445.37 153.441C445.748 153.823 446.047 154.277 446.252 154.776C446.456 155.276 446.562 155.811 446.562 156.352C446.562 156.892 446.456 157.428 446.252 157.927C446.047 158.427 445.748 158.881 445.37 159.263C444.992 159.645 444.544 159.948 444.05 160.154C443.557 160.36 443.028 160.466 442.494 160.465Z" fill="#E6E7E8"/>
<path d="M348.889 176.72H317.958C316.881 176.72 315.848 176.286 315.086 175.515C314.324 174.743 313.896 173.697 313.896 172.606C313.896 171.515 314.324 170.469 315.086 169.697C315.848 168.926 316.881 168.492 317.958 168.492H348.889C349.966 168.492 350.999 168.926 351.761 169.697C352.523 170.469 352.951 171.515 352.951 172.606C352.951 173.697 352.523 174.743 351.761 175.515C350.999 176.286 349.966 176.72 348.889 176.72Z" fill="#E6E7E8"/>
<path d="M327.536 359.304C335.069 359.304 341.175 353.119 341.175 345.49C341.175 337.861 335.069 331.676 327.536 331.676C320.003 331.676 313.896 337.861 313.896 345.49C313.896 353.119 320.003 359.304 327.536 359.304Z" fill="#E6E7E8"/>
<path d="M442.494 376.079H317.958C316.881 376.079 315.848 375.645 315.086 374.874C314.325 374.103 313.897 373.056 313.897 371.965C313.897 370.874 314.325 369.828 315.086 369.057C315.848 368.285 316.881 367.852 317.958 367.852H442.494C443.571 367.852 444.604 368.285 445.366 369.057C446.127 369.828 446.555 370.874 446.555 371.965C446.555 373.056 446.127 374.103 445.366 374.874C444.604 375.645 443.571 376.079 442.494 376.079Z" fill="#E6E7E8"/>
<path d="M348.889 392.333H317.958C316.881 392.333 315.848 391.9 315.086 391.128C314.324 390.357 313.896 389.311 313.896 388.22C313.896 387.129 314.324 386.082 315.086 385.311C315.848 384.539 316.881 384.106 317.958 384.106H348.889C349.966 384.106 350.999 384.539 351.761 385.311C352.523 386.082 352.951 387.129 352.951 388.22C352.951 389.311 352.523 390.357 351.761 391.128C350.999 391.9 349.966 392.333 348.889 392.333Z" fill="#E6E7E8"/>
<path d="M108.02 326.584C115.553 326.584 121.66 320.4 121.66 312.77C121.66 305.141 115.553 298.957 108.02 298.957C100.487 298.957 94.381 305.141 94.381 312.77C94.381 320.4 100.487 326.584 108.02 326.584Z" fill="#E6E7E8"/>
<path d="M222.978 343.359H98.4427C97.3655 343.359 96.3325 342.926 95.5708 342.154C94.8091 341.383 94.3812 340.337 94.3812 339.246C94.3812 338.155 94.8091 337.109 95.5708 336.337C96.3325 335.566 97.3655 335.132 98.4427 335.132H222.978C224.055 335.132 225.089 335.566 225.85 336.337C226.612 337.109 227.04 338.155 227.04 339.246C227.04 340.337 226.612 341.383 225.85 342.154C225.089 342.926 224.055 343.359 222.978 343.359Z" fill="#E6E7E8"/>
<path d="M129.374 359.614H98.4426C97.3654 359.614 96.3323 359.18 95.5706 358.409C94.8089 357.637 94.3809 356.591 94.3809 355.5C94.3809 354.409 94.8089 353.363 95.5706 352.591C96.3323 351.82 97.3654 351.386 98.4426 351.386H129.374C130.451 351.386 131.484 351.82 132.246 352.591C133.007 353.363 133.435 354.409 133.435 355.5C133.435 356.591 133.007 357.637 132.246 358.409C131.484 359.18 130.451 359.614 129.374 359.614Z" fill="#E6E7E8"/>
<path d="M327.536 243.37C335.069 243.37 341.175 237.185 341.175 229.556C341.175 221.927 335.069 215.742 327.536 215.742C320.003 215.742 313.896 221.927 313.896 229.556C313.896 237.185 320.003 243.37 327.536 243.37Z" fill="#E6E7E8"/>
<path d="M442.494 260.145H317.958C316.881 260.145 315.848 259.711 315.086 258.94C314.325 258.169 313.897 257.122 313.897 256.031C313.897 254.94 314.325 253.894 315.086 253.123C315.848 252.351 316.881 251.918 317.958 251.918H442.494C443.571 251.918 444.604 252.351 445.366 253.123C446.127 253.894 446.555 254.94 446.555 256.031C446.555 257.122 446.127 258.169 445.366 258.94C444.604 259.711 443.571 260.145 442.494 260.145Z" fill="#E6E7E8"/>
<path d="M392.792 276.399H317.958C316.881 276.399 315.848 275.966 315.086 275.194C314.324 274.423 313.896 273.377 313.896 272.286C313.896 271.195 314.324 270.148 315.086 269.377C315.848 268.605 316.881 268.172 317.958 268.172H392.792C393.869 268.172 394.903 268.605 395.664 269.377C396.426 270.148 396.854 271.195 396.854 272.286C396.854 273.377 396.426 274.423 395.664 275.194C394.903 275.966 393.869 276.399 392.792 276.399Z" fill="#E6E7E8"/>
<path d="M371.942 292.654H317.958C316.881 292.654 315.848 292.22 315.086 291.449C314.324 290.677 313.896 289.631 313.896 288.54C313.896 287.449 314.324 286.403 315.086 285.631C315.848 284.86 316.881 284.426 317.958 284.426H371.942C373.019 284.426 374.052 284.86 374.814 285.631C375.575 286.403 376.003 287.449 376.003 288.54C376.003 289.631 375.575 290.677 374.814 291.449C374.052 292.22 373.019 292.654 371.942 292.654Z" fill="#E6E7E8"/>
<path d="M203.181 139.789V284.824C203.18 285.836 202.783 286.806 202.076 287.523C201.37 288.239 200.413 288.642 199.413 288.645H123.96C115.612 280.805 108.764 271.472 103.759 261.116C103.429 260.449 103.115 259.777 102.817 259.094C98.2557 249.071 95.495 238.305 94.664 227.301C94.6074 226.623 94.5611 225.951 94.5302 225.268C94.4273 223.522 94.381 221.749 94.381 219.972C94.3657 208.14 96.5717 196.414 100.881 185.416C101.139 184.734 101.412 184.056 101.695 183.384C107.369 169.871 116.093 157.895 127.167 148.416C127.825 147.848 128.491 147.296 129.164 146.759L129.318 146.633C137.983 139.685 148.72 135.921 159.772 135.958H199.413C200.414 135.961 201.373 136.366 202.079 137.084C202.786 137.803 203.182 138.775 203.181 139.789Z" fill="#5979C7"/>
<path opacity="0.2" d="M203.382 185.417V183.384H169.731V135.958H167.729V183.384H129.164V146.759C128.489 147.296 127.824 147.848 127.167 148.416V183.384H101.695C101.412 184.056 101.139 184.734 100.881 185.417H127.167V225.268H94.5302C94.5611 225.951 94.6074 226.623 94.664 227.301H127.167V259.094H102.817C103.115 259.777 103.429 260.449 103.759 261.116H127.167V287.842H129.164V261.116H167.729V287.842H169.731V261.116H203.382V259.094H169.731C169.731 254.918 170.542 250.784 172.119 246.926C173.696 243.069 176.009 239.563 178.924 236.611C181.839 233.659 185.3 231.317 189.108 229.719C192.917 228.122 197 227.3 201.122 227.301H203.382V225.268H169.731V185.417H203.382ZM167.729 259.094H129.164V227.301H167.729V259.094ZM167.729 225.268H129.164V224.471C129.164 219.342 130.162 214.263 132.1 209.524C134.038 204.786 136.879 200.481 140.46 196.854C144.041 193.228 148.293 190.351 152.972 188.389C157.65 186.426 162.665 185.416 167.729 185.417V225.268Z" fill="black"/>
<path d="M199.586 259.606C198.78 259.643 197.981 259.429 197.299 258.991C196.616 258.554 196.083 257.915 195.772 257.16C195.46 256.405 195.385 255.572 195.557 254.773C195.729 253.974 196.139 253.247 196.732 252.692C196.831 252.292 196.903 252.005 197.002 251.605C196.966 251.518 196.931 251.431 196.895 251.344C193.269 242.587 170.13 266.999 169.13 275.229C168.69 278.867 168.875 282.555 169.679 286.128C162.185 269.57 158.293 251.573 158.268 233.357C158.266 228.787 158.517 224.219 159.019 219.677C159.434 215.953 160.009 212.255 160.745 208.584C164.762 188.666 173.387 169.997 185.911 154.111C193.074 154.516 199.351 153.41 199.957 139.351C200.065 136.85 201.897 134.685 202.3 132.221C201.617 132.312 200.921 132.369 200.238 132.414C200.025 132.426 199.8 132.437 199.587 132.448L199.507 132.452C198.756 132.486 198.01 132.3 197.361 131.915C196.712 131.53 196.186 130.963 195.848 130.283C195.509 129.602 195.372 128.837 195.452 128.08C195.533 127.322 195.828 126.605 196.302 126.013C196.597 125.645 196.893 125.277 197.189 124.91C197.637 124.342 198.097 123.786 198.545 123.218C198.597 123.164 198.645 123.107 198.691 123.048C199.206 122.4 199.722 121.765 200.238 121.117C199.296 119.638 198.03 118.398 196.538 117.496C191.371 114.43 184.241 116.553 180.508 121.288C176.764 126.022 176.058 132.664 177.358 138.579C178.637 143.612 180.752 148.388 183.613 152.703C183.333 153.066 183.042 153.418 182.761 153.781C177.638 160.453 173.173 167.617 169.43 175.171C170.489 166.793 157.539 136.537 152.531 130.128C146.516 122.43 134.18 125.79 133.12 135.548C133.11 135.643 133.1 135.737 133.09 135.832C133.834 136.257 134.562 136.708 135.275 137.185C136.17 137.791 136.863 138.656 137.264 139.668C137.665 140.679 137.755 141.79 137.523 142.854C137.29 143.919 136.745 144.887 135.959 145.632C135.174 146.378 134.185 146.866 133.121 147.032L133.012 147.049C123.055 161.448 154.975 198.924 162.965 190.51C159.204 201.303 156.845 212.547 155.947 223.957C155.439 230.688 155.469 237.451 156.037 244.177L156.003 243.939C154.228 229.288 123.772 207.505 114.879 209.32C109.755 210.365 104.709 210.127 105.487 215.361C105.5 215.445 105.512 215.529 105.525 215.612C106.905 216.181 108.249 216.837 109.549 217.576C110.293 218.001 111.021 218.452 111.734 218.929C112.629 219.535 113.322 220.4 113.723 221.412C114.125 222.424 114.215 223.535 113.982 224.599C113.749 225.663 113.204 226.632 112.419 227.377C111.633 228.123 110.644 228.61 109.58 228.776L109.471 228.793C109.392 228.805 109.325 228.816 109.247 228.827C104.714 244.622 138.327 270.113 158.761 262.002H158.772C160.797 270.915 163.731 279.59 167.527 287.888H198.803C198.915 287.536 199.016 287.173 199.117 286.821C196.222 287.005 193.315 286.83 190.463 286.298C192.783 283.415 195.103 280.508 197.424 277.624C197.476 277.57 197.524 277.514 197.57 277.454C198.747 275.978 199.935 274.514 201.112 273.038L201.113 273.036C201.175 268.512 200.663 263.998 199.587 259.606L199.586 259.606ZM163.772 188.25L163.788 188.228L163.772 188.273V188.25ZM156.844 251.5L156.575 250.887C156.586 250.444 156.586 250.002 156.575 249.547C156.575 249.422 156.553 249.298 156.553 249.173C156.653 249.956 156.743 250.74 156.855 251.523L156.844 251.5Z" fill="#2F2E41"/>
</g>
<path d="M594.665 52.186V308.125L593.875 318.782C592.491 337.281 593.5 348 589 367.337C586.5 374.5 581.262 380.801 579.5 382.5C577.331 384.607 578.88 384.544 576.5 386.338C575.138 387.369 573.419 388.579 572 389.5C563.749 394.867 540.721 391.142 531.272 392.517H463.559C458.171 392.522 452.964 390.327 448.903 386.338C446.892 384.367 445.207 382.011 443.925 379.379C442.134 375.686 441.198 371.545 441.202 367.337V52.186C441.21 45.5089 443.568 39.1077 447.76 34.3862C451.953 29.6647 457.636 27.0085 463.565 27H572.308C572.565 27 572.817 27.0064 573.074 27.0129C573.24 27.0193 573.406 27.0258 573.572 27.0451C573.795 27.0515 574.018 27.0709 574.236 27.0967C574.516 27.116 574.79 27.1482 575.065 27.1868C575.317 27.2255 575.568 27.2641 575.82 27.3092C575.872 27.3157 575.917 27.3286 575.969 27.335C576.289 27.393 576.61 27.4574 576.924 27.5347C577.239 27.6056 577.559 27.6894 577.868 27.7796C578.091 27.844 578.32 27.9149 578.543 27.9858C578.549 27.9858 578.56 27.9922 578.566 27.9922C579.224 28.2113 579.876 28.4626 580.517 28.7525C580.717 28.8363 580.918 28.9329 581.112 29.0295L581.198 29.0682C581.358 29.1455 581.512 29.2228 581.667 29.3066C582.13 29.545 582.588 29.8092 583.04 30.0862C583.783 30.5478 584.503 31.0555 585.197 31.6068C585.42 31.7808 585.637 31.9676 585.849 32.1545C586.026 32.3027 586.204 32.4573 586.375 32.6248C586.39 32.6334 586.403 32.6442 586.415 32.657C586.438 32.6764 586.461 32.7021 586.484 32.7215C586.638 32.8568 586.787 32.9985 586.93 33.1403C587.21 33.4109 587.485 33.6944 587.754 33.9843C587.828 34.0616 587.903 34.1389 587.977 34.2227C588.051 34.3 588.12 34.3838 588.194 34.4675C588.269 34.5449 588.337 34.6286 588.406 34.7059C588.447 34.7456 588.485 34.7887 588.521 34.8348C588.727 35.0796 588.927 35.3309 589.121 35.5822C589.367 35.8979 589.608 36.2201 589.831 36.5487C590.025 36.8193 590.208 37.0899 590.386 37.3669C590.551 37.6182 590.706 37.8695 590.86 38.1272C590.902 38.1913 590.94 38.258 590.975 38.327C591.135 38.5911 591.284 38.8617 591.432 39.1323C591.804 39.8153 592.142 40.5241 592.451 41.2392C592.565 41.5098 592.674 41.774 592.777 42.0446C592.908 42.3732 593.029 42.7018 593.143 43.0304C593.189 43.1528 593.229 43.2817 593.269 43.4041C593.332 43.591 593.389 43.7778 593.446 43.9647C593.509 44.1708 593.572 44.3835 593.629 44.5896L593.767 45.0922C593.847 45.395 593.915 45.6914 593.984 45.9942C594.024 46.1746 594.064 46.355 594.098 46.5419C594.367 47.8577 594.541 49.1958 594.619 50.5431C594.625 50.7106 594.636 50.8717 594.642 51.0392C594.659 51.4193 594.665 51.7995 594.665 52.186Z" fill="#3F3D56"/>
<path d="M594.665 52.186V158.381L580.466 175.752C579.825 174.991 579.194 174.22 578.572 173.439C577.685 172.343 576.819 171.231 575.975 170.101C575.752 169.811 575.54 169.528 575.322 169.238C574.756 168.49 574.207 167.73 573.658 166.963C568.688 160.038 564.257 152.644 560.414 144.863C559.933 143.891 559.464 142.918 559.001 141.932C554.827 133.03 551.434 123.69 548.869 114.046C548.577 112.957 548.297 111.856 548.034 110.754C545.914 102.129 544.462 93.3145 543.692 84.4079C543.583 83.1515 543.486 81.9016 543.406 80.6452C543.406 80.613 543.4 80.5743 543.4 80.5421C543.308 79.1762 543.246 77.8102 543.188 76.4314C542.495 59.7599 544.179 43.0709 548.177 27H572.308C572.565 27 572.817 27.0064 573.074 27.0129C573.24 27.0193 573.406 27.0258 573.572 27.0451C573.795 27.0515 574.018 27.0709 574.235 27.0967C574.516 27.116 574.79 27.1482 575.065 27.1868C575.317 27.2255 575.568 27.2641 575.82 27.3092C575.872 27.3157 575.917 27.3286 575.969 27.335H575.975C576.295 27.393 576.615 27.4574 576.93 27.5347C577.245 27.6056 577.565 27.6894 577.874 27.7796C578.097 27.844 578.326 27.9149 578.549 27.9858C578.555 27.9858 578.566 27.9922 578.572 27.9922C579.23 28.2113 579.876 28.4626 580.517 28.7525C580.717 28.8363 580.917 28.9329 581.112 29.0295L581.198 29.0682C581.358 29.1455 581.512 29.2228 581.667 29.3066C582.13 29.545 582.588 29.8092 583.04 30.0862C583.783 30.5478 584.503 31.0555 585.197 31.6068C585.42 31.7808 585.637 31.9676 585.849 32.1545C586.026 32.3027 586.204 32.4573 586.375 32.6248C586.39 32.6334 586.403 32.6442 586.415 32.657H586.421C586.524 32.7537 586.627 32.8503 586.724 32.947C586.793 33.0114 586.867 33.0758 586.93 33.1403C587.027 33.2305 587.119 33.3271 587.216 33.4173C587.262 33.4624 587.308 33.5075 587.348 33.5526C587.485 33.6944 587.617 33.8361 587.754 33.9843C587.828 34.0616 587.903 34.1389 587.977 34.2227C588.051 34.3 588.12 34.3838 588.194 34.4675C588.269 34.5449 588.337 34.6286 588.406 34.7059L588.412 34.7124C588.454 34.7465 588.49 34.7878 588.521 34.8348C588.726 35.0796 588.927 35.3309 589.121 35.5822C589.367 35.8979 589.607 36.2201 589.831 36.5487C590.025 36.8193 590.208 37.0899 590.386 37.3669C590.551 37.6182 590.706 37.8695 590.86 38.1272C590.902 38.1913 590.94 38.258 590.975 38.327C591.135 38.5911 591.284 38.8617 591.432 39.1323C591.804 39.8153 592.142 40.5241 592.451 41.2392C592.565 41.5098 592.674 41.774 592.777 42.0446C592.908 42.3732 593.029 42.7018 593.143 43.0304C593.189 43.1528 593.229 43.2817 593.269 43.4041C593.332 43.591 593.389 43.7778 593.446 43.9647C593.509 44.1708 593.572 44.3835 593.629 44.5896L593.767 45.0922C593.847 45.395 593.915 45.6914 593.984 45.9942C594.024 46.1746 594.064 46.355 594.098 46.5419C594.367 47.8577 594.541 49.1958 594.619 50.5431C594.625 50.7106 594.636 50.8716 594.642 51.0392C594.659 51.4193 594.665 51.7995 594.665 52.186Z" fill="#5979C7"/>
<path opacity="0.2" d="M594.671 84.408V81.4699H578.572V35.5822H589.127C588.932 35.331 588.732 35.0797 588.526 34.8348H588.521C588.49 34.7878 588.454 34.7465 588.412 34.7124V34.706H588.406C588.337 34.6287 588.269 34.5449 588.194 34.4676C588.128 34.3813 588.058 34.2995 587.983 34.2227H587.977C587.903 34.139 587.828 34.0617 587.754 33.9843C587.617 33.8362 587.485 33.6944 587.348 33.5527C587.308 33.5076 587.262 33.4625 587.216 33.4174C587.119 33.3272 587.027 33.2305 586.93 33.1403C586.867 33.0759 586.793 33.0114 586.724 32.947C586.627 32.8504 586.524 32.7537 586.421 32.6571H578.572V27.9923C578.566 27.9923 578.555 27.9858 578.549 27.9858C578.326 27.915 578.097 27.8441 577.874 27.7797C577.565 27.6895 577.245 27.6057 576.93 27.5348C576.615 27.4575 576.295 27.3931 575.975 27.3351V35.5822C575.974 46.1553 572.732 56.4037 566.797 64.5955C560.861 72.7874 552.597 78.4202 543.4 80.5421C543.4 80.5743 543.406 80.613 543.406 80.6452C543.486 81.9016 543.583 83.1516 543.692 84.408H575.975V141.932H559.001C559.464 142.918 559.933 143.891 560.414 144.863H575.975V170.101C576.821 171.229 577.687 172.341 578.572 173.439V144.863H594.671V138.949H594.665C594.613 138.968 594.568 138.987 594.516 139.007C586.673 141.977 578.572 135.276 578.572 125.953V84.408H594.671Z" fill="black"/>
<path d="M439.651 141.667C438.984 141.666 438.344 141.367 437.872 140.836C437.4 140.304 437.135 139.584 437.134 138.832V119.56C437.134 119.187 437.199 118.818 437.325 118.474C437.451 118.129 437.636 117.816 437.87 117.553C438.104 117.289 438.381 117.08 438.687 116.937C438.992 116.795 439.32 116.721 439.651 116.721C439.982 116.721 440.309 116.795 440.615 116.937C440.92 117.08 441.198 117.289 441.432 117.553C441.665 117.816 441.851 118.129 441.977 118.474C442.103 118.818 442.168 119.187 442.167 119.56V138.832C442.167 139.584 441.901 140.304 441.429 140.836C440.958 141.367 440.318 141.666 439.651 141.667Z" fill="#3F3D56"/>
<path d="M527.886 126.278H507.989C503.697 126.278 500.217 130.197 500.217 135.03V135.03C500.217 139.864 503.697 143.783 507.989 143.783H527.886C532.178 143.783 535.657 139.864 535.657 135.03C535.657 130.197 532.178 126.278 527.886 126.278Z" fill="#5979C7"/>
<path d="M564.799 161.288H471.075C466.783 161.288 463.303 165.206 463.303 170.04V170.04C463.303 174.874 466.783 178.793 471.075 178.793H564.799C569.091 178.793 572.571 174.874 572.571 170.04C572.571 165.206 569.091 161.288 564.799 161.288Z" fill="white"/>
<path d="M564.799 196.297H471.075C466.783 196.297 463.303 200.216 463.303 205.05V205.05C463.303 209.884 466.783 213.802 471.075 213.802H564.799C569.091 213.802 572.571 209.884 572.571 205.05C572.571 200.216 569.091 196.297 564.799 196.297Z" fill="white"/>
<path d="M439.148 104.255C438.48 104.254 437.841 103.955 437.369 103.424C436.897 102.892 436.632 102.172 436.631 101.421V82.1478C436.632 81.3969 436.898 80.6771 437.369 80.1465C437.841 79.6159 438.481 79.3179 439.148 79.3179C439.814 79.3179 440.454 79.6159 440.926 80.1465C441.397 80.6771 441.663 81.3969 441.664 82.1478V101.421C441.663 102.172 441.398 102.892 440.926 103.424C440.454 103.955 439.815 104.254 439.148 104.255Z" fill="#3F3D56"/>
<path d="M500.939 36.3636C500.939 35.6122 501.205 34.8918 501.677 34.3605C502.148 33.8292 502.788 33.5303 503.455 33.5294H520.568C521.235 33.5294 521.875 33.828 522.347 34.3596C522.819 34.8911 523.084 35.612 523.084 36.3636C523.084 37.1153 522.819 37.8362 522.347 38.3678C521.875 38.8993 521.235 39.1979 520.568 39.1979H503.455C502.788 39.197 502.148 38.8981 501.677 38.3668C501.205 37.8355 500.939 37.1151 500.939 36.3636Z" fill="white"/>
<path d="M439.651 174.544C438.984 174.543 438.344 174.244 437.872 173.713C437.4 173.181 437.135 172.461 437.134 171.709V152.437C437.134 152.064 437.199 151.695 437.325 151.351C437.451 151.006 437.636 150.693 437.87 150.43C438.104 150.166 438.381 149.957 438.687 149.814C438.992 149.672 439.32 149.598 439.651 149.598C439.982 149.598 440.309 149.672 440.615 149.814C440.92 149.957 441.198 150.166 441.432 150.43C441.665 150.693 441.851 151.006 441.977 151.351C442.103 151.695 442.168 152.064 442.167 152.437V171.709C442.167 172.461 441.901 173.181 441.429 173.713C440.958 174.244 440.318 174.543 439.651 174.544Z" fill="#3F3D56"/>
<path d="M530.13 39.1979C531.52 39.1979 532.647 37.9289 532.647 36.3636C532.647 34.7983 531.52 33.5294 530.13 33.5294C528.741 33.5294 527.614 34.7983 527.614 36.3636C527.614 37.9289 528.741 39.1979 530.13 39.1979Z" fill="white"/>
<path d="M569.096 373.521C566.927 375.627 564.646 377.583 562.266 379.377C560.904 380.408 559.508 381.381 558.089 382.302C549.839 387.669 540.725 391.14 531.276 392.515H463.563C458.175 392.52 452.967 390.325 448.906 386.336C446.896 384.365 445.211 382.009 443.929 379.377C442.138 375.684 441.202 371.543 441.206 367.335V228.396C443.792 228.603 446.359 228.892 448.906 229.266C449.776 229.389 450.64 229.524 451.504 229.672C469.187 232.612 486.191 239.412 501.561 249.691C502.431 250.271 503.3 250.863 504.159 251.476C511.853 256.874 519.058 263.111 525.669 270.096C526.579 271.056 527.477 272.033 528.364 273.028C542.926 289.237 554.112 308.884 561.116 330.552C561.43 331.524 561.735 332.504 562.031 333.49C565.943 346.424 568.318 359.884 569.096 373.521Z" fill="#5979C7"/>
<path opacity="0.2" d="M504.159 379.377C504.159 373.351 505.213 367.383 507.261 361.815C509.309 356.248 512.31 351.189 516.094 346.928C519.878 342.666 524.371 339.287 529.315 336.981C534.259 334.675 539.557 333.489 544.908 333.49H562.031C561.734 332.504 561.428 331.524 561.116 330.552H504.159V273.028H528.364C527.477 272.035 526.579 271.058 525.669 270.096H504.159V251.475C503.301 250.863 502.431 250.271 501.561 249.691V270.096H451.504V229.672C450.64 229.524 449.776 229.389 448.906 229.266V270.096H441.206V273.028H448.906V330.552H441.206V333.49H448.906V379.377H443.929C444.425 380.394 444.981 381.371 445.594 382.302H448.906V386.336C449.724 387.138 450.592 387.873 451.504 388.533V382.302H501.561V392.515H504.159V382.302H558.089C559.508 381.381 560.904 380.408 562.266 379.377L504.159 379.377ZM501.561 379.377H451.504V333.49H501.561V379.377ZM501.561 330.552H451.504V329.411C451.503 314.458 456.777 300.118 466.165 289.544C475.552 278.97 488.285 273.029 501.561 273.028V330.552Z" fill="black"/>
<path d="M492.7 301.835C492.7 304.263 491.985 306.622 490.665 308.543C489.346 310.463 487.497 311.836 485.41 312.444C483.323 313.053 481.116 312.864 479.134 311.906C477.153 310.948 475.511 309.276 474.465 307.153C473.419 305.03 473.029 302.575 473.356 300.175C473.683 297.775 474.709 295.566 476.272 293.893C477.835 292.221 479.848 291.181 481.993 290.937C484.138 290.693 486.294 291.258 488.123 292.544C486.221 295.049 484.643 297.845 483.438 300.849C485.581 298.434 488.323 296.805 491.304 296.178C492.221 297.884 492.704 299.841 492.7 301.835Z" fill="#2F2E41"/>
<path d="M525.869 364.346C524.344 362.63 523.368 360.391 523.096 357.983C522.823 355.574 523.268 353.131 524.362 351.039C525.456 348.946 527.136 347.322 529.138 346.422C531.14 345.521 533.351 345.395 535.424 346.063C537.497 346.732 539.313 348.157 540.589 350.115C541.865 352.072 542.526 354.452 542.471 356.879C542.415 359.306 541.645 361.644 540.282 363.525C538.919 365.406 537.039 366.724 534.938 367.271C534.711 363.985 534.07 360.751 533.037 357.667C533.038 361.082 532.121 364.417 530.408 367.235C528.688 366.759 527.118 365.759 525.869 364.346Z" fill="#2F2E41"/>
<path d="M583.534 61.2788H452.341C452.189 61.275 452.045 61.2044 451.938 61.0822C451.832 60.9599 451.773 60.7957 451.773 60.6246C451.773 60.4536 451.832 60.2894 451.938 60.1671C452.045 60.0448 452.189 59.9742 452.341 59.9704H583.534C583.686 59.9742 583.83 60.0448 583.936 60.1671C584.043 60.2894 584.102 60.4536 584.102 60.6246C584.102 60.7957 584.043 60.9599 583.936 61.0822C583.83 61.2044 583.686 61.275 583.534 61.2788Z" fill="white"/>
<path d="M462.284 56.6302C464.164 56.6302 465.688 54.8755 465.688 52.7109C465.688 50.5463 464.164 48.7915 462.284 48.7915C460.404 48.7915 458.88 50.5463 458.88 52.7109C458.88 54.8755 460.404 56.6302 462.284 56.6302Z" fill="white"/>
<path d="M474.044 56.6302C475.924 56.6302 477.448 54.8755 477.448 52.7109C477.448 50.5463 475.924 48.7915 474.044 48.7915C472.164 48.7915 470.64 50.5463 470.64 52.7109C470.64 54.8755 472.164 56.6302 474.044 56.6302Z" fill="white"/>
<path d="M485.804 56.6302C487.684 56.6302 489.208 54.8755 489.208 52.7109C489.208 50.5463 487.684 48.7915 485.804 48.7915C483.923 48.7915 482.399 50.5463 482.399 52.7109C482.399 54.8755 483.923 56.6302 485.804 56.6302Z" fill="white"/>
<path d="M576.453 49.763H568.1C567.934 49.7667 567.777 49.8434 567.661 49.9766C567.545 50.1098 567.48 50.2889 567.48 50.4754C567.48 50.6619 567.545 50.8409 567.661 50.9741C567.777 51.1073 567.934 51.184 568.1 51.1877H576.453C576.619 51.184 576.777 51.1073 576.893 50.9741C577.009 50.8409 577.073 50.6619 577.073 50.4754C577.073 50.2889 577.009 50.1098 576.893 49.9766C576.777 49.8434 576.619 49.7667 576.453 49.763Z" fill="white"/>
<path d="M576.453 52.437H568.1C567.934 52.4407 567.777 52.5174 567.661 52.6505C567.545 52.7837 567.48 52.9628 567.48 53.1493C567.48 53.3358 567.545 53.5149 567.661 53.6481C567.777 53.7813 567.934 53.858 568.1 53.8617H576.453C576.619 53.858 576.777 53.7813 576.893 53.6481C577.009 53.5149 577.073 53.3358 577.073 53.1493C577.073 52.9628 577.009 52.7837 576.893 52.6505C576.777 52.5174 576.619 52.4407 576.453 52.437Z" fill="white"/>
<path d="M576.453 55.1075H568.1C567.934 55.1112 567.777 55.1879 567.661 55.321C567.545 55.4542 567.48 55.6333 567.48 55.8198C567.48 56.0063 567.545 56.1854 567.661 56.3186C567.777 56.4518 567.934 56.5285 568.1 56.5322H576.453C576.619 56.5285 576.777 56.4518 576.893 56.3186C577.009 56.1854 577.073 56.0063 577.073 55.8198C577.073 55.6333 577.009 55.4542 576.893 55.321C576.777 55.1879 576.619 55.1112 576.453 55.1075Z" fill="white"/>
</g>
<defs>
<clipPath id="clip0_10_310">
<rect width="591" height="472" fill="white"/>
</clipPath>
<clipPath id="clip1_10_310">
<rect width="901" height="723" fill="white" transform="translate(-392 33)"/>
</clipPath>
</defs>
</svg>
