<svg width="393" height="150" viewBox="0 0 393 150" fill="none" xmlns="http://www.w3.org/2000/svg">
<mask id="path-1-inside-1_10_44" fill="white">
<path fill-rule="evenodd" clip-rule="evenodd" d="M134 0H46V150H166V32H134V0Z"/>
</mask>
<path fill-rule="evenodd" clip-rule="evenodd" d="M134 0H46V150H166V32H134V0Z" fill="white"/>
<path d="M46 0V-4H42V0H46ZM134 0H138V-4H134V0ZM46 150H42V154H46V150ZM166 150V154H170V150H166ZM166 32H170V28H166V32ZM134 32H130V36H134V32ZM46 4H134V-4H46V4ZM50 150V0H42V150H50ZM166 146H46V154H166V146ZM162 32V150H170V32H162ZM166 28H134V36H166V28ZM138 32V0H130V32H138Z" fill="#5979C7" mask="url(#path-1-inside-1_10_44)"/>
<path d="M143 24V2C155.581 2 165.902 11.6809 166.918 24H143Z" fill="white" stroke="#5979C7" stroke-width="4"/>
<rect y="11" width="91" height="30" fill="#5979C7"/>
<path d="M20.612 19.31V22.118H15.536V24.35H19.28V27.032H15.536V32H12.008V19.31H20.612ZM30.1258 29.93H25.6258L24.9418 32H21.2338L25.8598 19.31H29.9278L34.5358 32H30.8098L30.1258 29.93ZM29.2438 27.23L27.8758 23.126L26.5258 27.23H29.2438ZM42.1117 32L39.5917 27.32H39.2137V32H35.6857V19.31H41.2477C42.2677 19.31 43.1317 19.49 43.8397 19.85C44.5477 20.198 45.0817 20.684 45.4417 21.308C45.8017 21.92 45.9817 22.61 45.9817 23.378C45.9817 24.242 45.7417 25.004 45.2617 25.664C44.7937 26.312 44.1037 26.774 43.1917 27.05L46.0537 32H42.1117ZM39.2137 24.908H40.9597C41.4397 24.908 41.7997 24.794 42.0397 24.566C42.2797 24.338 42.3997 24.008 42.3997 23.576C42.3997 23.168 42.2737 22.85 42.0217 22.622C41.7817 22.382 41.4277 22.262 40.9597 22.262H39.2137V24.908ZM51.1141 19.31V32H47.5861V19.31H51.1141ZM64.4812 19.31V32H60.9532V26.906H56.6512V32H53.1232V19.31H56.6512V24.08H60.9532V19.31H64.4812ZM74.5282 29.93H70.0282L69.3442 32H65.6362L70.2622 19.31H74.3302L78.9382 32H75.2122L74.5282 29.93ZM73.6462 27.23L72.2782 23.126L70.9282 27.23H73.6462Z" fill="white"/>
<path d="M77.56 95.776L66.192 83.4L77.56 71.024H89.6L78.176 83.4L89.6 95.776H77.56ZM118.652 49.8L103.644 113.472H94.4038L109.412 49.8H118.652ZM122.747 71.024H134.787L146.155 83.4L134.787 95.776H122.747L134.171 83.4L122.747 71.024Z" fill="#5979C7"/>
<path d="M190.1 72.344C192.172 72.344 193.983 72.7547 195.532 73.576C197.081 74.3973 198.276 75.5547 199.116 77.048C199.975 78.5227 200.404 80.2307 200.404 82.172C200.404 84.0947 199.975 85.8027 199.116 87.296C198.276 88.7893 197.072 89.9467 195.504 90.768C193.955 91.5893 192.153 92 190.1 92H182.736V72.344H190.1ZM189.792 87.856C191.603 87.856 193.012 87.3613 194.02 86.372C195.028 85.3827 195.532 83.9827 195.532 82.172C195.532 80.3613 195.028 78.952 194.02 77.944C193.012 76.936 191.603 76.432 189.792 76.432H187.524V87.856H189.792ZM217.808 83.936C217.808 84.384 217.78 84.8507 217.724 85.336H206.888C206.962 86.3067 207.27 87.0533 207.812 87.576C208.372 88.08 209.053 88.332 209.856 88.332C211.05 88.332 211.881 87.828 212.348 86.82H217.444C217.182 87.8467 216.706 88.7707 216.016 89.592C215.344 90.4133 214.494 91.0573 213.468 91.524C212.441 91.9907 211.293 92.224 210.024 92.224C208.493 92.224 207.13 91.8973 205.936 91.244C204.741 90.5907 203.808 89.6573 203.136 88.444C202.464 87.2307 202.128 85.812 202.128 84.188C202.128 82.564 202.454 81.1453 203.108 79.932C203.78 78.7187 204.713 77.7853 205.908 77.132C207.102 76.4787 208.474 76.152 210.024 76.152C211.536 76.152 212.88 76.4693 214.056 77.104C215.232 77.7387 216.146 78.644 216.8 79.82C217.472 80.996 217.808 82.368 217.808 83.936ZM212.908 82.676C212.908 81.8547 212.628 81.2013 212.068 80.716C211.508 80.2307 210.808 79.988 209.968 79.988C209.165 79.988 208.484 80.2213 207.924 80.688C207.382 81.1547 207.046 81.8173 206.916 82.676H212.908ZM226.69 92.224C225.327 92.224 224.114 91.9907 223.05 91.524C221.986 91.0573 221.146 90.4227 220.53 89.62C219.914 88.7987 219.568 87.884 219.494 86.876H224.226C224.282 87.4173 224.534 87.856 224.982 88.192C225.43 88.528 225.98 88.696 226.634 88.696C227.231 88.696 227.688 88.584 228.006 88.36C228.342 88.1173 228.51 87.8093 228.51 87.436C228.51 86.988 228.276 86.6613 227.81 86.456C227.343 86.232 226.587 85.9893 225.542 85.728C224.422 85.4667 223.488 85.196 222.742 84.916C221.995 84.6173 221.351 84.16 220.81 83.544C220.268 82.9093 219.998 82.06 219.998 80.996C219.998 80.1 220.24 79.288 220.726 78.56C221.23 77.8133 221.958 77.2253 222.91 76.796C223.88 76.3667 225.028 76.152 226.354 76.152C228.314 76.152 229.854 76.6373 230.974 77.608C232.112 78.5787 232.766 79.8667 232.934 81.472H228.51C228.435 80.9307 228.192 80.5013 227.782 80.184C227.39 79.8667 226.867 79.708 226.214 79.708C225.654 79.708 225.224 79.82 224.926 80.044C224.627 80.2493 224.478 80.5387 224.478 80.912C224.478 81.36 224.711 81.696 225.178 81.92C225.663 82.144 226.41 82.368 227.418 82.592C228.575 82.8907 229.518 83.1893 230.246 83.488C230.974 83.768 231.608 84.2347 232.15 84.888C232.71 85.5227 232.999 86.3813 233.018 87.464C233.018 88.3787 232.756 89.2 232.234 89.928C231.73 90.6373 230.992 91.1973 230.022 91.608C229.07 92.0187 227.959 92.224 226.69 92.224ZM238.355 74.752C237.515 74.752 236.824 74.5093 236.283 74.024C235.76 73.52 235.499 72.904 235.499 72.176C235.499 71.4293 235.76 70.8133 236.283 70.328C236.824 69.824 237.515 69.572 238.355 69.572C239.176 69.572 239.848 69.824 240.371 70.328C240.912 70.8133 241.183 71.4293 241.183 72.176C241.183 72.904 240.912 73.52 240.371 74.024C239.848 74.5093 239.176 74.752 238.355 74.752ZM240.735 76.376V92H235.947V76.376H240.735ZM250.141 76.152C251.242 76.152 252.203 76.376 253.025 76.824C253.865 77.272 254.509 77.86 254.957 78.588V76.376H259.745V91.972C259.745 93.4093 259.455 94.7067 258.877 95.864C258.317 97.04 257.449 97.9733 256.273 98.664C255.115 99.3547 253.669 99.7 251.933 99.7C249.618 99.7 247.742 99.1493 246.305 98.048C244.867 96.9653 244.046 95.4907 243.841 93.624H248.573C248.722 94.2213 249.077 94.688 249.637 95.024C250.197 95.3787 250.887 95.556 251.709 95.556C252.698 95.556 253.482 95.2667 254.061 94.688C254.658 94.128 254.957 93.2227 254.957 91.972V89.76C254.49 90.488 253.846 91.0853 253.025 91.552C252.203 92 251.242 92.224 250.141 92.224C248.853 92.224 247.686 91.8973 246.641 91.244C245.595 90.572 244.765 89.6293 244.149 88.416C243.551 87.184 243.253 85.7653 243.253 84.16C243.253 82.5547 243.551 81.1453 244.149 79.932C244.765 78.7187 245.595 77.7853 246.641 77.132C247.686 76.4787 248.853 76.152 250.141 76.152ZM254.957 84.188C254.957 82.9933 254.621 82.0507 253.949 81.36C253.295 80.6693 252.493 80.324 251.541 80.324C250.589 80.324 249.777 80.6693 249.105 81.36C248.451 82.032 248.125 82.9653 248.125 84.16C248.125 85.3547 248.451 86.3067 249.105 87.016C249.777 87.7067 250.589 88.052 251.541 88.052C252.493 88.052 253.295 87.7067 253.949 87.016C254.621 86.3253 254.957 85.3827 254.957 84.188ZM272.729 76.208C274.558 76.208 276.014 76.8053 277.097 78C278.198 79.176 278.749 80.8 278.749 82.872V92H273.989V83.516C273.989 82.4707 273.718 81.6587 273.177 81.08C272.635 80.5013 271.907 80.212 270.993 80.212C270.078 80.212 269.35 80.5013 268.809 81.08C268.267 81.6587 267.997 82.4707 267.997 83.516V92H263.209V76.376H267.997V78.448C268.482 77.7573 269.135 77.216 269.957 76.824C270.778 76.4133 271.702 76.208 272.729 76.208ZM303.045 92L301.225 90.236C299.415 91.6173 297.249 92.308 294.729 92.308C293.217 92.308 291.901 92.0653 290.781 91.58C289.661 91.076 288.793 90.376 288.177 89.48C287.58 88.5653 287.281 87.5013 287.281 86.288C287.281 85.056 287.608 83.9453 288.261 82.956C288.933 81.948 289.932 81.1267 291.257 80.492C290.772 79.8947 290.427 79.3253 290.221 78.784C290.016 78.224 289.913 77.6173 289.913 76.964C289.913 76.0307 290.156 75.1813 290.641 74.416C291.127 73.6507 291.827 73.0533 292.741 72.624C293.675 72.176 294.776 71.952 296.045 71.952C297.333 71.952 298.425 72.1853 299.321 72.652C300.217 73.1187 300.889 73.744 301.337 74.528C301.785 75.312 301.991 76.1707 301.953 77.104H297.445C297.464 76.6 297.333 76.2173 297.053 75.956C296.792 75.676 296.437 75.536 295.989 75.536C295.541 75.536 295.168 75.6667 294.869 75.928C294.571 76.1893 294.421 76.5253 294.421 76.936C294.421 77.328 294.543 77.7387 294.785 78.168C295.047 78.5973 295.448 79.092 295.989 79.652L300.777 84.328C300.815 84.2347 300.861 84.1227 300.917 83.992C300.992 83.8613 301.067 83.712 301.141 83.544L302.177 81.78H306.965L305.621 84.216C305.117 85.3173 304.539 86.3627 303.885 87.352L308.617 92H303.045ZM294.953 88.444C296.204 88.444 297.315 88.0893 298.285 87.38L293.917 83.152C292.573 83.8427 291.901 84.776 291.901 85.952C291.901 86.6613 292.172 87.2587 292.713 87.744C293.273 88.2107 294.02 88.444 294.953 88.444ZM190.1 114.344C192.172 114.344 193.983 114.755 195.532 115.576C197.081 116.397 198.276 117.555 199.116 119.048C199.975 120.523 200.404 122.231 200.404 124.172C200.404 126.095 199.975 127.803 199.116 129.296C198.276 130.789 197.072 131.947 195.504 132.768C193.955 133.589 192.153 134 190.1 134H182.736V114.344H190.1ZM189.792 129.856C191.603 129.856 193.012 129.361 194.02 128.372C195.028 127.383 195.532 125.983 195.532 124.172C195.532 122.361 195.028 120.952 194.02 119.944C193.012 118.936 191.603 118.432 189.792 118.432H187.524V129.856H189.792ZM217.808 125.936C217.808 126.384 217.78 126.851 217.724 127.336H206.888C206.962 128.307 207.27 129.053 207.812 129.576C208.372 130.08 209.053 130.332 209.856 130.332C211.05 130.332 211.881 129.828 212.348 128.82H217.444C217.182 129.847 216.706 130.771 216.016 131.592C215.344 132.413 214.494 133.057 213.468 133.524C212.441 133.991 211.293 134.224 210.024 134.224C208.493 134.224 207.13 133.897 205.936 133.244C204.741 132.591 203.808 131.657 203.136 130.444C202.464 129.231 202.128 127.812 202.128 126.188C202.128 124.564 202.454 123.145 203.108 121.932C203.78 120.719 204.713 119.785 205.908 119.132C207.102 118.479 208.474 118.152 210.024 118.152C211.536 118.152 212.88 118.469 214.056 119.104C215.232 119.739 216.146 120.644 216.8 121.82C217.472 122.996 217.808 124.368 217.808 125.936ZM212.908 124.676C212.908 123.855 212.628 123.201 212.068 122.716C211.508 122.231 210.808 121.988 209.968 121.988C209.165 121.988 208.484 122.221 207.924 122.688C207.382 123.155 207.046 123.817 206.916 124.676H212.908ZM227.362 129.52L230.75 118.376H235.846L230.302 134H224.394L218.85 118.376H223.974L227.362 129.52ZM252.589 125.936C252.589 126.384 252.561 126.851 252.505 127.336H241.669C241.744 128.307 242.052 129.053 242.593 129.576C243.153 130.08 243.834 130.332 244.637 130.332C245.832 130.332 246.662 129.828 247.129 128.82H252.225C251.964 129.847 251.488 130.771 250.797 131.592C250.125 132.413 249.276 133.057 248.249 133.524C247.222 133.991 246.074 134.224 244.805 134.224C243.274 134.224 241.912 133.897 240.717 133.244C239.522 132.591 238.589 131.657 237.917 130.444C237.245 129.231 236.909 127.812 236.909 126.188C236.909 124.564 237.236 123.145 237.889 121.932C238.561 120.719 239.494 119.785 240.689 119.132C241.884 118.479 243.256 118.152 244.805 118.152C246.317 118.152 247.661 118.469 248.837 119.104C250.013 119.739 250.928 120.644 251.581 121.82C252.253 122.996 252.589 124.368 252.589 125.936ZM247.689 124.676C247.689 123.855 247.409 123.201 246.849 122.716C246.289 122.231 245.589 121.988 244.749 121.988C243.946 121.988 243.265 122.221 242.705 122.688C242.164 123.155 241.828 123.817 241.697 124.676H247.689ZM259.903 113.28V134H255.115V113.28H259.903ZM270.485 134.224C268.954 134.224 267.573 133.897 266.341 133.244C265.127 132.591 264.166 131.657 263.457 130.444C262.766 129.231 262.421 127.812 262.421 126.188C262.421 124.583 262.775 123.173 263.485 121.96C264.194 120.728 265.165 119.785 266.397 119.132C267.629 118.479 269.01 118.152 270.541 118.152C272.071 118.152 273.453 118.479 274.685 119.132C275.917 119.785 276.887 120.728 277.597 121.96C278.306 123.173 278.661 124.583 278.661 126.188C278.661 127.793 278.297 129.212 277.569 130.444C276.859 131.657 275.879 132.591 274.629 133.244C273.397 133.897 272.015 134.224 270.485 134.224ZM270.485 130.08C271.399 130.08 272.174 129.744 272.809 129.072C273.462 128.4 273.789 127.439 273.789 126.188C273.789 124.937 273.471 123.976 272.837 123.304C272.221 122.632 271.455 122.296 270.541 122.296C269.607 122.296 268.833 122.632 268.217 123.304C267.601 123.957 267.293 124.919 267.293 126.188C267.293 127.439 267.591 128.4 268.189 129.072C268.805 129.744 269.57 130.08 270.485 130.08ZM285.989 120.588C286.456 119.86 287.1 119.272 287.921 118.824C288.742 118.376 289.704 118.152 290.805 118.152C292.093 118.152 293.26 118.479 294.305 119.132C295.35 119.785 296.172 120.719 296.769 121.932C297.385 123.145 297.693 124.555 297.693 126.16C297.693 127.765 297.385 129.184 296.769 130.416C296.172 131.629 295.35 132.572 294.305 133.244C293.26 133.897 292.093 134.224 290.805 134.224C289.722 134.224 288.761 134 287.921 133.552C287.1 133.104 286.456 132.525 285.989 131.816V141.448H281.201V118.376H285.989V120.588ZM292.821 126.16C292.821 124.965 292.485 124.032 291.813 123.36C291.16 122.669 290.348 122.324 289.377 122.324C288.425 122.324 287.613 122.669 286.941 123.36C286.288 124.051 285.961 124.993 285.961 126.188C285.961 127.383 286.288 128.325 286.941 129.016C287.613 129.707 288.425 130.052 289.377 130.052C290.329 130.052 291.141 129.707 291.813 129.016C292.485 128.307 292.821 127.355 292.821 126.16ZM314.933 125.936C314.933 126.384 314.905 126.851 314.849 127.336H304.013C304.087 128.307 304.395 129.053 304.937 129.576C305.497 130.08 306.178 130.332 306.981 130.332C308.175 130.332 309.006 129.828 309.473 128.82H314.569C314.307 129.847 313.831 130.771 313.141 131.592C312.469 132.413 311.619 133.057 310.593 133.524C309.566 133.991 308.418 134.224 307.149 134.224C305.618 134.224 304.255 133.897 303.061 133.244C301.866 132.591 300.933 131.657 300.261 130.444C299.589 129.231 299.253 127.812 299.253 126.188C299.253 124.564 299.579 123.145 300.233 121.932C300.905 120.719 301.838 119.785 303.033 119.132C304.227 118.479 305.599 118.152 307.149 118.152C308.661 118.152 310.005 118.469 311.181 119.104C312.357 119.739 313.271 120.644 313.925 121.82C314.597 122.996 314.933 124.368 314.933 125.936ZM310.033 124.676C310.033 123.855 309.753 123.201 309.193 122.716C308.633 122.231 307.933 121.988 307.093 121.988C306.29 121.988 305.609 122.221 305.049 122.688C304.507 123.155 304.171 123.817 304.041 124.676H310.033ZM337.395 118.208C339.336 118.208 340.876 118.796 342.015 119.972C343.172 121.148 343.751 122.781 343.751 124.872V134H338.991V125.516C338.991 124.508 338.72 123.733 338.179 123.192C337.656 122.632 336.928 122.352 335.995 122.352C335.061 122.352 334.324 122.632 333.783 123.192C333.26 123.733 332.999 124.508 332.999 125.516V134H328.239V125.516C328.239 124.508 327.968 123.733 327.427 123.192C326.904 122.632 326.176 122.352 325.243 122.352C324.309 122.352 323.572 122.632 323.031 123.192C322.508 123.733 322.247 124.508 322.247 125.516V134H317.459V118.376H322.247V120.336C322.732 119.683 323.367 119.169 324.151 118.796C324.935 118.404 325.821 118.208 326.811 118.208C327.987 118.208 329.032 118.46 329.947 118.964C330.88 119.468 331.608 120.187 332.131 121.12C332.672 120.261 333.409 119.561 334.343 119.02C335.276 118.479 336.293 118.208 337.395 118.208ZM361.827 125.936C361.827 126.384 361.799 126.851 361.743 127.336H350.907C350.982 128.307 351.29 129.053 351.831 129.576C352.391 130.08 353.073 130.332 353.875 130.332C355.07 130.332 355.901 129.828 356.367 128.82H361.463C361.202 129.847 360.726 130.771 360.035 131.592C359.363 132.413 358.514 133.057 357.487 133.524C356.461 133.991 355.313 134.224 354.043 134.224C352.513 134.224 351.15 133.897 349.955 133.244C348.761 132.591 347.827 131.657 347.155 130.444C346.483 129.231 346.147 127.812 346.147 126.188C346.147 124.564 346.474 123.145 347.127 121.932C347.799 120.719 348.733 119.785 349.927 119.132C351.122 118.479 352.494 118.152 354.043 118.152C355.555 118.152 356.899 118.469 358.075 119.104C359.251 119.739 360.166 120.644 360.819 121.82C361.491 122.996 361.827 124.368 361.827 125.936ZM356.927 124.676C356.927 123.855 356.647 123.201 356.087 122.716C355.527 122.231 354.827 121.988 353.987 121.988C353.185 121.988 352.503 122.221 351.943 122.688C351.402 123.155 351.066 123.817 350.935 124.676H356.927ZM373.873 118.208C375.703 118.208 377.159 118.805 378.241 120C379.343 121.176 379.893 122.8 379.893 124.872V134H375.133V125.516C375.133 124.471 374.863 123.659 374.321 123.08C373.78 122.501 373.052 122.212 372.137 122.212C371.223 122.212 370.495 122.501 369.953 123.08C369.412 123.659 369.141 124.471 369.141 125.516V134H364.353V118.376H369.141V120.448C369.627 119.757 370.28 119.216 371.101 118.824C371.923 118.413 372.847 118.208 373.873 118.208ZM391.928 129.94V134H389.492C387.756 134 386.403 133.58 385.432 132.74C384.462 131.881 383.976 130.491 383.976 128.568V122.352H382.072V118.376H383.976V114.568H388.764V118.376H391.9V122.352H388.764V128.624C388.764 129.091 388.876 129.427 389.1 129.632C389.324 129.837 389.698 129.94 390.22 129.94H391.928Z" fill="#5979C7"/>
</svg>
